<svg width="78" height="78" viewBox="0 0 78 78" fill="none" xmlns="http://www.w3.org/2000/svg">
<path d="M11.6349 12.1184C12.1215 11.365 13.1263 11.1484 13.88 11.6339C13.8804 11.6342 13.8816 11.6349 13 13L12.1184 14.3651C11.3645 13.8782 11.1481 12.8723 11.6349 12.1184Z" fill="#050505"/>
<path fill-rule="evenodd" clip-rule="evenodd" d="M27.625 57.9747V20.0253C24.4684 19.4048 21.7306 18.5925 19.4732 17.7787C17.1477 16.9405 15.3287 16.0996 14.0822 15.4627C13.4587 15.1441 12.978 14.8763 12.6481 14.6849C12.4831 14.5891 12.3558 14.5125 12.2672 14.4581L12.1634 14.3937L12.1335 14.3748L12.1241 14.3687L12.1184 14.3651C12.1178 14.3647 12.1184 14.3651 13 13L13.88 11.6339L13.8953 11.6436L13.9667 11.6879C14.0333 11.7287 14.1378 11.7917 14.2791 11.8738C14.5619 12.0378 14.9919 12.2778 15.561 12.5686C16.6995 13.1504 18.3927 13.9345 20.5753 14.7213C24.9414 16.2951 31.2539 17.875 39 17.875C46.7461 17.875 53.0586 16.2951 57.4248 14.7213C59.6074 13.9345 61.3005 13.1504 62.439 12.5686C63.0081 12.2778 63.4382 12.0378 63.7209 11.8738C63.8623 11.7917 63.9668 11.7287 64.0334 11.6879L64.1047 11.6436L64.1184 11.6349C64.8722 11.1488 65.8784 11.3648 66.3651 12.1184C66.852 12.8723 66.6355 13.8782 65.8816 14.3651L65 13C65.8816 14.3651 65.8822 14.3647 65.8816 14.3651L65.8759 14.3687L65.8665 14.3748L65.8366 14.3937L65.7328 14.4581C65.6442 14.5125 65.5169 14.5891 65.3519 14.6849C65.0221 14.8763 64.5413 15.1441 63.9179 15.4627C62.6713 16.0996 60.8523 16.9405 58.5269 17.7787C56.2694 18.5925 53.5317 19.4048 50.375 20.0253V57.9747C53.5317 58.5952 56.2694 59.4076 58.5269 60.2213C60.8523 61.0596 62.6713 61.9004 63.9179 62.5374C64.5413 62.8559 65.0221 63.1238 65.3519 63.3152C65.5169 63.4109 65.6442 63.4875 65.7328 63.5419L65.8366 63.6063L65.8665 63.6253L65.8759 63.6313L65.8792 63.6334C65.8798 63.6338 65.8816 63.635 65 65L65.8792 63.6334C66.6331 64.1203 66.852 65.1277 66.3651 65.8816C65.8784 66.6352 64.8731 66.8518 64.1193 66.3656L64.1047 66.3564L64.0334 66.3121C63.9668 66.2713 63.8623 66.2083 63.7209 66.1263C63.4382 65.9622 63.0081 65.7222 62.439 65.4314C61.3005 64.8496 59.6074 64.0655 57.4248 63.2787C53.0586 61.7049 46.7461 60.125 39 60.125C31.2539 60.125 24.9414 61.7049 20.5753 63.2787C18.3927 64.0655 16.6995 64.8496 15.561 65.4314C14.9919 65.7222 14.5619 65.9622 14.2791 66.1263C14.1378 66.2083 14.0333 66.2713 13.9667 66.3121L13.8953 66.3564L13.8816 66.3651L13 65C12.1184 63.635 12.1189 63.6346 12.1195 63.6343L12.1241 63.6313L12.1335 63.6253L12.1634 63.6063L12.2672 63.5419C12.3558 63.4875 12.4831 63.4109 12.6481 63.3152C12.978 63.1238 13.4587 62.8559 14.0822 62.5374C15.3287 61.9004 17.1477 61.0596 19.4732 60.2213C21.7306 59.4076 24.4684 58.5952 27.625 57.9747ZM30.875 57.4313C33.3784 57.0852 36.0947 56.875 39 56.875C41.9053 56.875 44.6217 57.0852 47.125 57.4313V20.5687C44.6217 20.9148 41.9053 21.125 39 21.125C36.0947 21.125 33.3784 20.9148 30.875 20.5687V57.4313Z" fill="#050505"/>
<path d="M13.8816 66.3651C13.8813 66.3653 13.8819 66.3649 13.8816 66.3651V66.3651Z" fill="#050505"/>
<path d="M13.8816 66.3651C13.1278 66.8513 12.1217 66.6352 11.6349 65.8816C11.1481 65.1277 11.3656 64.1211 12.1195 63.6343L13 65C13.8816 66.3651 13.882 66.3648 13.8816 66.3651Z" fill="#050505"/>
</svg>
