<svg width="78" height="78" viewBox="0 0 78 78" fill="none" xmlns="http://www.w3.org/2000/svg">
<path fill-rule="evenodd" clip-rule="evenodd" d="M8.73487 11.7311C9.43567 11.1705 10.4583 11.2841 11.0189 11.9849L16.2795 18.5606L20.6567 13.3402C22.6089 11.0119 26.1922 11.0173 28.1374 13.3515L32.5 18.5867L36.8799 13.3308C38.8289 10.992 42.4211 10.992 44.3701 13.3308L49.2451 19.1808C49.9752 20.0569 50.375 21.1612 50.375 22.3017V25.3598C51.4624 24.3174 52.405 23.4816 53.2899 22.8496C54.9654 21.6527 56.5103 21.125 58.5 21.125C59.7852 21.125 61.2435 21.7315 62.5405 22.7337C63.8753 23.7651 65.1591 25.3023 66.0787 27.3713C67.93 31.5367 68.2465 37.6966 64.8838 46.1035C62.4297 52.2386 58.5221 56.3313 54.4244 58.9854C56.1399 60.3327 58.5502 61.3845 61.9294 61.7599C62.8214 61.8591 63.4641 62.6625 63.365 63.5545C63.2659 64.4464 62.4625 65.0892 61.5705 64.9901C56.9785 64.4798 53.6908 62.8439 51.4169 60.6764C47.2694 62.6815 43.2411 63.375 40.625 63.375C39.7275 63.375 39 62.6475 39 61.75C39 60.8525 39.7275 60.125 40.625 60.125C42.7119 60.125 45.9162 59.5932 49.2948 58.0826C49.291 58.0766 49.2873 58.0706 49.2835 58.0647C47.2218 54.784 46.8399 51.1176 47.125 48.6526V22.3017C47.125 21.9215 46.9917 21.5534 46.7484 21.2614L41.8734 15.4114C41.2237 14.6318 40.0263 14.6318 39.3766 15.4114L34.125 21.7133V55.25C34.125 56.1475 33.3975 56.875 32.5 56.875C31.6025 56.875 30.875 56.1475 30.875 55.25V21.7133L25.6407 15.4321C24.9923 14.6541 23.7978 14.6523 23.1471 15.4284L17.875 21.7161V55.25C17.875 56.1474 17.1475 56.875 16.25 56.875C15.3525 56.875 14.625 56.1474 14.625 55.25V21.695L8.48109 14.0151C7.92045 13.3143 8.03407 12.2917 8.73487 11.7311ZM50.375 48.7706C50.3752 48.7555 50.3752 48.7404 50.375 48.7254L50.375 29.9233C52.5786 27.7221 53.9779 26.352 55.1789 25.4942C56.3471 24.6598 57.2397 24.375 58.5 24.375C58.8397 24.375 59.6158 24.581 60.5533 25.3054C61.4529 26.0005 62.4034 27.104 63.1088 28.6912C64.5075 31.8383 65.0035 37.0534 61.8662 44.8965C59.6061 50.5468 55.9491 54.231 52.1789 56.5577C52.1298 56.4838 52.0819 56.4097 52.0352 56.3354C50.7839 54.3443 50.3282 52.1373 50.2934 50.375H50.375V48.7706Z" fill="#050505"/>
</svg>
