<svg width="78" height="78" viewBox="0 0 78 78" fill="none" xmlns="http://www.w3.org/2000/svg">
<path d="M17.5189 11.9849C16.9583 11.2841 15.9357 11.1705 15.2349 11.7311C14.5341 12.2917 14.4204 13.3143 14.9811 14.0151L21.125 21.695V55.25H24.375V21.7161L29.6471 15.4284C30.2978 14.6523 31.4923 14.6541 32.1407 15.4321L37.375 21.7133V55.25H40.625V21.7133L45.8766 15.4114C46.5263 14.6318 47.7237 14.6318 48.3734 15.4114L53.2484 21.2614C53.4917 21.5534 53.625 21.9215 53.625 22.3017V47.1194L53.625 47.125V54.758C53.625 56.4592 54.1285 58.1224 55.0722 59.5378C56.6704 61.9351 59.3609 63.375 62.242 63.375H65V67.4654C65 67.7549 65.3501 67.8999 65.5548 67.6952L71.2702 61.9798C71.3971 61.8529 71.3971 61.6471 71.2702 61.5202L65.5548 55.8048C65.3501 55.6001 65 55.7451 65 56.0346V60.125H62.242C60.4475 60.125 58.7718 59.2282 57.7764 57.7351C57.1886 56.8534 56.875 55.8176 56.875 54.758L56.875 22.3017C56.875 21.1612 56.4752 20.0569 55.7451 19.1808L50.8701 13.3308C48.9211 10.992 45.3289 10.992 43.3799 13.3308L39 18.5867L34.6374 13.3515C32.6922 11.0173 29.1089 11.0119 27.1567 13.3402L22.7795 18.5606L17.5189 11.9849Z" fill="#050505"/>
</svg>
